<svg width="38" height="48" viewBox="0 0 38 48" fill="none" xmlns="http://www.w3.org/2000/svg">
<path d="M12.6327 8.58281C13.8394 9.33557 15.195 9.37268 16.489 9.60063C18.2298 9.84448 20.027 9.98231 21.7678 10.2527C21.8191 10.2633 21.8191 10.3428 21.7678 10.3534C20.294 10.6238 18.7536 10.7351 17.285 10.9948C16.0988 11.1751 14.9126 11.3341 13.7367 11.6999C13.3208 11.8377 12.8278 12.0286 12.5043 12.4261C11.9908 13.0093 12.2321 14.0748 13.0846 14.0801C13.3721 14.0801 13.6237 13.9317 13.7778 13.709C13.8497 13.603 13.9524 13.5235 14.0705 13.4811C15.1539 13.0994 16.3658 13.0199 17.516 12.8502C19.4211 12.6117 21.3981 12.458 23.3237 12.071C24.0631 11.8801 24.9361 11.7635 25.506 11.0478C26.0093 10.4117 25.7063 9.4575 25.1569 9.09702C23.9758 8.34426 22.6407 8.27534 21.3673 8.02619C20.1451 7.83534 17.9114 7.52258 17.0436 7.40065C16.9923 7.39535 16.9923 7.31053 17.0436 7.30523C18.2247 7.1568 19.4262 7.06138 20.6124 6.89174C22.1683 6.59487 25.9785 6.62668 26.0401 4.37369C25.999 3.00069 24.4688 2.72503 23.8064 3.5255C23.7088 3.64213 23.5702 3.72165 23.4212 3.76405C20.9873 4.51152 18.2349 4.56983 15.688 5.07344C14.815 5.23778 14.0705 5.3544 13.1873 5.72018C12.8124 5.90042 12.5711 6.00645 12.2373 6.43584C11.693 7.1515 12.0165 8.18522 12.6327 8.58281Z" fill="#141414" style="fill:#141414;fill:color(display-p3 0.0784 0.0784 0.0784);fill-opacity:1;"/>
<path d="M8.67402 14.9601C7.93504 14.9601 7.24647 15.2537 6.73411 15.7868C6.22712 16.3145 5.95399 17.0367 5.98395 17.7672C6.34729 26.5765 9.47778 35.4652 10.8075 38.8782C11.3298 40.2148 12.5937 41.0776 14.0287 41.0776H20.9151C22.3493 41.0776 23.6147 40.2141 24.1363 38.8767C24.5067 37.9262 25.0194 36.5195 25.5706 34.8393C26.0853 34.7359 26.6211 34.5509 27.245 34.2932C28.1958 33.9005 29.2666 33.337 30.2966 32.6084C32.3567 31.1511 34.3715 28.9657 34.3715 26.0985C34.3715 23.7788 32.4662 21.8736 30.1466 21.8736C29.5599 21.8736 29.0284 22.0141 28.5517 22.2412C28.7512 20.7652 28.8981 19.266 28.9598 17.7672C28.9898 17.0367 28.7166 16.3145 28.2097 15.7868C27.6981 15.2537 27.0087 14.9601 26.2697 14.9601H8.67402ZM30.1466 24.1781C31.2206 24.1781 32.067 25.0244 32.067 26.0985C32.067 27.8402 30.7064 29.4957 28.9658 30.727C28.1072 31.3344 27.1845 31.8204 26.3988 32.1478C26.7873 30.8124 27.1684 29.3808 27.518 27.8538L27.527 27.8553C27.6754 27.0968 28.0173 26.0514 28.5022 25.3048C28.9872 24.5582 29.4719 24.1781 30.1466 24.1781ZM4.7972 42.614C4.64451 42.6118 4.49292 42.64 4.35123 42.697C4.20954 42.7539 4.08058 42.8384 3.97184 42.9456C3.8631 43.0528 3.77676 43.1806 3.71782 43.3215C3.65889 43.4623 3.62854 43.6135 3.62854 43.7662C3.62854 43.9189 3.65889 44.0701 3.71782 44.211C3.77676 44.3518 3.8631 44.4796 3.97184 44.5868C4.08058 44.694 4.20954 44.7785 4.35123 44.8355C4.49292 44.8924 4.64451 44.9206 4.7972 44.9185H30.1466C30.2993 44.9206 30.4508 44.8924 30.5925 44.8355C30.7342 44.7785 30.8632 44.694 30.9719 44.5868C31.0807 44.4796 31.167 44.3518 31.2259 44.211C31.2849 44.0701 31.3152 43.9189 31.3152 43.7662C31.3152 43.6135 31.2849 43.4623 31.2259 43.3215C31.167 43.1806 31.0807 43.0528 30.9719 42.9456C30.8632 42.8384 30.7342 42.7539 30.5925 42.697C30.4508 42.64 30.2993 42.6118 30.1466 42.614H4.7972Z" fill="#141414" style="fill:#141414;fill:color(display-p3 0.0784 0.0784 0.0784);fill-opacity:1;"/>
</svg>
