<svg width="32" height="32" viewBox="0 0 32 32" fill="none" xmlns="http://www.w3.org/2000/svg">
<g id="user-circle">
<path id="Vector" d="M25.6668 16C25.6668 21.3387 21.3389 25.6666 16.0002 25.6666C10.6614 25.6666 6.3335 21.3387 6.3335 16C6.3335 10.6612 10.6614 6.33331 16.0002 6.33331C21.3389 6.33331 25.6668 10.6612 25.6668 16Z" stroke="black" style="stroke:black;stroke-opacity:1;" stroke-width="1.5" stroke-linecap="round" stroke-linejoin="round"/>
<path id="Vector_2" d="M19 13.3333C19 14.9902 17.6569 16.3333 16 16.3333C14.3431 16.3333 13 14.9902 13 13.3333C13 11.6765 14.3431 10.3333 16 10.3333C17.6569 10.3333 19 11.6765 19 13.3333Z" stroke="#141414" style="stroke:#141414;stroke:color(display-p3 0.0784 0.0784 0.0784);stroke-opacity:1;" stroke-width="1.5" stroke-linecap="round" stroke-linejoin="round"/>
<path id="Vector_3" d="M9.59668 22.6667C11.1253 20.8334 13.4264 19.6667 16.0001 19.6667C18.5737 19.6667 20.8748 20.8334 22.4035 22.6667" stroke="#141414" style="stroke:#141414;stroke:color(display-p3 0.0784 0.0784 0.0784);stroke-opacity:1;" stroke-width="1.5" stroke-linecap="round" stroke-linejoin="round"/>
</g>
</svg>
